<?xml version="1.0" encoding="utf-8" ?>
<svg xmlns="http://www.w3.org/2000/svg" xmlns:xlink="http://www.w3.org/1999/xlink" width="512" height="512">
	<rect fill="white" width="512" height="512"/>
	<rect x="45.511112" y="45.511112" width="79.64444" height="11.377777"/>
	<rect x="136.53334" y="45.511112" width="22.755554" height="11.377777"/>
	<rect x="193.42223" y="45.511112" width="11.377777" height="11.377777"/>
	<rect x="238.93333" y="45.511112" width="11.377777" height="11.377777"/>
	<rect x="261.6889" y="45.511112" width="56.888885" height="11.377777"/>
	<rect x="329.95557" y="45.511112" width="34.133331" height="11.377777"/>
	<rect x="386.84445" y="45.511112" width="79.64444" height="11.377777"/>
	<rect x="45.511112" y="56.888889" width="11.377777" height="11.377781"/>
	<rect x="113.77778" y="56.888889" width="11.377777" height="11.377781"/>
	<rect x="136.53334" y="56.888889" width="56.888885" height="11.377781"/>
	<rect x="204.8" y="56.888889" width="11.377777" height="11.377781"/>
	<rect x="250.31111" y="56.888889" width="22.755569" height="11.377781"/>
	<rect x="284.44446" y="56.888889" width="11.377777" height="11.377781"/>
	<rect x="307.20001" y="56.888889" width="22.755554" height="11.377781"/>
	<rect x="341.33334" y="56.888889" width="11.377777" height="11.377781"/>
	<rect x="386.84445" y="56.888889" width="11.377777" height="11.377781"/>
	<rect x="455.11111" y="56.888889" width="11.377777" height="11.377781"/>
	<rect x="45.511112" y="68.26667" width="11.377777" height="11.377777"/>
	<rect x="68.26667" y="68.26667" width="34.133331" height="11.377777"/>
	<rect x="113.77778" y="68.26667" width="11.377777" height="11.377777"/>
	<rect x="136.53334" y="68.26667" width="22.755554" height="11.377777"/>
	<rect x="170.66667" y="68.26667" width="11.377777" height="11.377777"/>
	<rect x="193.42223" y="68.26667" width="22.755554" height="11.377777"/>
	<rect x="227.55556" y="68.26667" width="11.377777" height="11.377777"/>
	<rect x="261.6889" y="68.26667" width="11.377777" height="11.377777"/>
	<rect x="284.44446" y="68.26667" width="34.133331" height="11.377777"/>
	<rect x="329.95557" y="68.26667" width="22.755554" height="11.377777"/>
	<rect x="364.0889" y="68.26667" width="11.377777" height="11.377777"/>
	<rect x="386.84445" y="68.26667" width="11.377777" height="11.377777"/>
	<rect x="409.60001" y="68.26667" width="34.133331" height="11.377777"/>
	<rect x="455.11111" y="68.26667" width="11.377777" height="11.377777"/>
	<rect x="45.511112" y="79.644447" width="11.377777" height="11.377777"/>
	<rect x="68.26667" y="79.644447" width="34.133331" height="11.377777"/>
	<rect x="113.77778" y="79.644447" width="11.377777" height="11.377777"/>
	<rect x="147.91112" y="79.644447" width="34.133331" height="11.377777"/>
	<rect x="193.42223" y="79.644447" width="34.133331" height="11.377777"/>
	<rect x="273.06668" y="79.644447" width="22.755554" height="11.377777"/>
	<rect x="307.20001" y="79.644447" width="11.377777" height="11.377777"/>
	<rect x="329.95557" y="79.644447" width="11.377777" height="11.377777"/>
	<rect x="364.0889" y="79.644447" width="11.377777" height="11.377777"/>
	<rect x="386.84445" y="79.644447" width="11.377777" height="11.377777"/>
	<rect x="409.60001" y="79.644447" width="34.133331" height="11.377777"/>
	<rect x="455.11111" y="79.644447" width="11.377777" height="11.377777"/>
	<rect x="45.511112" y="91.022224" width="11.377777" height="11.377777"/>
	<rect x="68.26667" y="91.022224" width="34.133331" height="11.377777"/>
	<rect x="113.77778" y="91.022224" width="11.377777" height="11.377777"/>
	<rect x="136.53334" y="91.022224" width="22.755554" height="11.377777"/>
	<rect x="170.66667" y="91.022224" width="11.377777" height="11.377777"/>
	<rect x="193.42223" y="91.022224" width="22.755554" height="11.377777"/>
	<rect x="261.6889" y="91.022224" width="11.377777" height="11.377777"/>
	<rect x="284.44446" y="91.022224" width="22.755554" height="11.377777"/>
	<rect x="341.33334" y="91.022224" width="11.377777" height="11.377777"/>
	<rect x="364.0889" y="91.022224" width="11.377777" height="11.377777"/>
	<rect x="386.84445" y="91.022224" width="11.377777" height="11.377777"/>
	<rect x="409.60001" y="91.022224" width="34.133331" height="11.377777"/>
	<rect x="455.11111" y="91.022224" width="11.377777" height="11.377777"/>
	<rect x="45.511112" y="102.4" width="11.377777" height="11.377777"/>
	<rect x="113.77778" y="102.4" width="11.377777" height="11.377777"/>
	<rect x="159.28889" y="102.4" width="34.133331" height="11.377777"/>
	<rect x="204.8" y="102.4" width="11.377777" height="11.377777"/>
	<rect x="273.06668" y="102.4" width="11.377777" height="11.377777"/>
	<rect x="295.82224" y="102.4" width="22.755554" height="11.377777"/>
	<rect x="341.33334" y="102.4" width="11.377777" height="11.377777"/>
	<rect x="364.0889" y="102.4" width="11.377777" height="11.377777"/>
	<rect x="386.84445" y="102.4" width="11.377777" height="11.377777"/>
	<rect x="455.11111" y="102.4" width="11.377777" height="11.377777"/>
	<rect x="45.511112" y="113.77778" width="79.64444" height="11.377777"/>
	<rect x="136.53334" y="113.77778" width="11.377777" height="11.377777"/>
	<rect x="159.28889" y="113.77778" width="11.377777" height="11.377777"/>
	<rect x="182.04445" y="113.77778" width="11.377777" height="11.377777"/>
	<rect x="204.8" y="113.77778" width="11.377777" height="11.377777"/>
	<rect x="227.55556" y="113.77778" width="11.377777" height="11.377777"/>
	<rect x="250.31111" y="113.77778" width="11.377792" height="11.377777"/>
	<rect x="273.06668" y="113.77778" width="11.377777" height="11.377777"/>
	<rect x="295.82224" y="113.77778" width="11.377777" height="11.377777"/>
	<rect x="318.57779" y="113.77778" width="11.377777" height="11.377777"/>
	<rect x="341.33334" y="113.77778" width="11.377777" height="11.377777"/>
	<rect x="364.0889" y="113.77778" width="11.377777" height="11.377777"/>
	<rect x="386.84445" y="113.77778" width="79.64444" height="11.377777"/>
	<rect x="147.91112" y="125.15556" width="11.377777" height="11.377785"/>
	<rect x="193.42223" y="125.15556" width="22.755554" height="11.377785"/>
	<rect x="227.55556" y="125.15556" width="56.888901" height="11.377785"/>
	<rect x="295.82224" y="125.15556" width="11.377777" height="11.377785"/>
	<rect x="318.57779" y="125.15556" width="22.755554" height="11.377785"/>
	<rect x="352.71112" y="125.15556" width="22.755554" height="11.377785"/>
	<rect x="45.511112" y="136.53334" width="11.377777" height="11.377777"/>
	<rect x="79.644447" y="136.53334" width="68.26667" height="11.377777"/>
	<rect x="159.28889" y="136.53334" width="11.377777" height="11.377777"/>
	<rect x="182.04445" y="136.53334" width="11.377777" height="11.377777"/>
	<rect x="204.8" y="136.53334" width="22.755554" height="11.377777"/>
	<rect x="284.44446" y="136.53334" width="22.755554" height="11.377777"/>
	<rect x="318.57779" y="136.53334" width="34.133331" height="11.377777"/>
	<rect x="375.46667" y="136.53334" width="11.377777" height="11.377777"/>
	<rect x="409.60001" y="136.53334" width="11.377777" height="11.377777"/>
	<rect x="432.35556" y="136.53334" width="34.133331" height="11.377777"/>
	<rect x="45.511112" y="147.91112" width="11.377777" height="11.377777"/>
	<rect x="182.04445" y="147.91112" width="11.377777" height="11.377777"/>
	<rect x="227.55556" y="147.91112" width="11.377777" height="11.377777"/>
	<rect x="250.31111" y="147.91112" width="11.377792" height="11.377777"/>
	<rect x="318.57779" y="147.91112" width="34.133331" height="11.377777"/>
	<rect x="409.60001" y="147.91112" width="45.511108" height="11.377777"/>
	<rect x="45.511112" y="159.28889" width="11.377777" height="11.377777"/>
	<rect x="68.26667" y="159.28889" width="34.133331" height="11.377777"/>
	<rect x="113.77778" y="159.28889" width="11.377777" height="11.377777"/>
	<rect x="147.91112" y="159.28889" width="11.377777" height="11.377777"/>
	<rect x="216.17778" y="159.28889" width="22.755554" height="11.377777"/>
	<rect x="250.31111" y="159.28889" width="34.133347" height="11.377777"/>
	<rect x="307.20001" y="159.28889" width="34.133331" height="11.377777"/>
	<rect x="352.71112" y="159.28889" width="22.755554" height="11.377777"/>
	<rect x="386.84445" y="159.28889" width="11.377777" height="11.377777"/>
	<rect x="420.97778" y="159.28889" width="11.377777" height="11.377777"/>
	<rect x="455.11111" y="159.28889" width="11.377777" height="11.377777"/>
	<rect x="45.511112" y="170.66667" width="34.133335" height="11.377777"/>
	<rect x="125.15556" y="170.66667" width="34.133339" height="11.377777"/>
	<rect x="182.04445" y="170.66667" width="11.377777" height="11.377777"/>
	<rect x="227.55556" y="170.66667" width="22.755554" height="11.377777"/>
	<rect x="261.6889" y="170.66667" width="22.755554" height="11.377777"/>
	<rect x="295.82224" y="170.66667" width="22.755554" height="11.377777"/>
	<rect x="341.33334" y="170.66667" width="22.755554" height="11.377777"/>
	<rect x="420.97778" y="170.66667" width="45.511108" height="11.377777"/>
	<rect x="79.644447" y="182.04445" width="11.377777" height="11.377777"/>
	<rect x="102.4" y="182.04445" width="34.133339" height="11.377777"/>
	<rect x="170.66667" y="182.04445" width="34.133331" height="11.377777"/>
	<rect x="216.17778" y="182.04445" width="11.377777" height="11.377777"/>
	<rect x="273.06668" y="182.04445" width="11.377777" height="11.377777"/>
	<rect x="307.20001" y="182.04445" width="22.755554" height="11.377777"/>
	<rect x="364.0889" y="182.04445" width="11.377777" height="11.377777"/>
	<rect x="386.84445" y="182.04445" width="22.755554" height="11.377777"/>
	<rect x="420.97778" y="182.04445" width="11.377777" height="11.377777"/>
	<rect x="455.11111" y="182.04445" width="11.377777" height="11.377777"/>
	<rect x="125.15556" y="193.42223" width="11.377785" height="11.377777"/>
	<rect x="159.28889" y="193.42223" width="11.377777" height="11.377777"/>
	<rect x="182.04445" y="193.42223" width="11.377777" height="11.377777"/>
	<rect x="204.8" y="193.42223" width="34.133331" height="11.377777"/>
	<rect x="250.31111" y="193.42223" width="11.377792" height="11.377777"/>
	<rect x="284.44446" y="193.42223" width="11.377777" height="11.377777"/>
	<rect x="307.20001" y="193.42223" width="11.377777" height="11.377777"/>
	<rect x="329.95557" y="193.42223" width="34.133331" height="11.377777"/>
	<rect x="409.60001" y="193.42223" width="22.755554" height="11.377777"/>
	<rect x="45.511112" y="204.8" width="11.377777" height="11.377777"/>
	<rect x="91.022224" y="204.8" width="11.377777" height="11.377777"/>
	<rect x="113.77778" y="204.8" width="22.755562" height="11.377777"/>
	<rect x="216.17778" y="204.8" width="11.377777" height="11.377777"/>
	<rect x="250.31111" y="204.8" width="34.133347" height="11.377777"/>
	<rect x="318.57779" y="204.8" width="22.755554" height="11.377777"/>
	<rect x="352.71112" y="204.8" width="34.133331" height="11.377777"/>
	<rect x="409.60001" y="204.8" width="56.888885" height="11.377777"/>
	<rect x="45.511112" y="216.17778" width="11.377777" height="11.377777"/>
	<rect x="68.26667" y="216.17778" width="22.755554" height="11.377777"/>
	<rect x="102.4" y="216.17778" width="11.377777" height="11.377777"/>
	<rect x="125.15556" y="216.17778" width="68.26667" height="11.377777"/>
	<rect x="227.55556" y="216.17778" width="11.377777" height="11.377777"/>
	<rect x="261.6889" y="216.17778" width="45.511108" height="11.377777"/>
	<rect x="352.71112" y="216.17778" width="34.133331" height="11.377777"/>
	<rect x="398.22223" y="216.17778" width="11.377777" height="11.377777"/>
	<rect x="420.97778" y="216.17778" width="34.133331" height="11.377777"/>
	<rect x="45.511112" y="227.55556" width="22.755558" height="11.377777"/>
	<rect x="91.022224" y="227.55556" width="11.377777" height="11.377777"/>
	<rect x="113.77778" y="227.55556" width="11.377777" height="11.377777"/>
	<rect x="136.53334" y="227.55556" width="22.755554" height="11.377777"/>
	<rect x="170.66667" y="227.55556" width="56.888885" height="11.377777"/>
	<rect x="238.93333" y="227.55556" width="34.133347" height="11.377777"/>
	<rect x="284.44446" y="227.55556" width="45.511108" height="11.377777"/>
	<rect x="352.71112" y="227.55556" width="11.377777" height="11.377777"/>
	<rect x="386.84445" y="227.55556" width="11.377777" height="11.377777"/>
	<rect x="432.35556" y="227.55556" width="11.377777" height="11.377777"/>
	<rect x="56.888889" y="238.93333" width="34.133335" height="11.377777"/>
	<rect x="125.15556" y="238.93333" width="11.377785" height="11.377777"/>
	<rect x="147.91112" y="238.93333" width="56.888885" height="11.377777"/>
	<rect x="295.82224" y="238.93333" width="11.377777" height="11.377777"/>
	<rect x="329.95557" y="238.93333" width="11.377777" height="11.377777"/>
	<rect x="352.71112" y="238.93333" width="34.133331" height="11.377777"/>
	<rect x="398.22223" y="238.93333" width="11.377777" height="11.377777"/>
	<rect x="420.97778" y="238.93333" width="22.755554" height="11.377777"/>
	<rect x="45.511112" y="250.31111" width="22.755558" height="11.377792"/>
	<rect x="91.022224" y="250.31111" width="45.511116" height="11.377792"/>
	<rect x="182.04445" y="250.31111" width="11.377777" height="11.377792"/>
	<rect x="204.8" y="250.31111" width="11.377777" height="11.377792"/>
	<rect x="227.55556" y="250.31111" width="45.511124" height="11.377792"/>
	<rect x="284.44446" y="250.31111" width="34.133331" height="11.377792"/>
	<rect x="329.95557" y="250.31111" width="11.377777" height="11.377792"/>
	<rect x="352.71112" y="250.31111" width="34.133331" height="11.377792"/>
	<rect x="432.35556" y="250.31111" width="11.377777" height="11.377792"/>
	<rect x="455.11111" y="250.31111" width="11.377777" height="11.377792"/>
	<rect x="45.511112" y="261.6889" width="22.755558" height="11.377777"/>
	<rect x="79.644447" y="261.6889" width="34.133331" height="11.377777"/>
	<rect x="125.15556" y="261.6889" width="11.377785" height="11.377777"/>
	<rect x="159.28889" y="261.6889" width="79.64444" height="11.377777"/>
	<rect x="250.31111" y="261.6889" width="34.133347" height="11.377777"/>
	<rect x="295.82224" y="261.6889" width="11.377777" height="11.377777"/>
	<rect x="329.95557" y="261.6889" width="11.377777" height="11.377777"/>
	<rect x="352.71112" y="261.6889" width="45.511108" height="11.377777"/>
	<rect x="455.11111" y="261.6889" width="11.377777" height="11.377777"/>
	<rect x="56.888889" y="273.06668" width="34.133335" height="11.377777"/>
	<rect x="113.77778" y="273.06668" width="11.377777" height="11.377777"/>
	<rect x="136.53334" y="273.06668" width="34.133331" height="11.377777"/>
	<rect x="193.42223" y="273.06668" width="11.377777" height="11.377777"/>
	<rect x="238.93333" y="273.06668" width="11.377777" height="11.377777"/>
	<rect x="261.6889" y="273.06668" width="11.377777" height="11.377777"/>
	<rect x="307.20001" y="273.06668" width="11.377777" height="11.377777"/>
	<rect x="364.0889" y="273.06668" width="68.266663" height="11.377777"/>
	<rect x="45.511112" y="284.44446" width="22.755558" height="11.377777"/>
	<rect x="79.644447" y="284.44446" width="11.377777" height="11.377777"/>
	<rect x="136.53334" y="284.44446" width="11.377777" height="11.377777"/>
	<rect x="238.93333" y="284.44446" width="34.133347" height="11.377777"/>
	<rect x="307.20001" y="284.44446" width="11.377777" height="11.377777"/>
	<rect x="341.33334" y="284.44446" width="22.755554" height="11.377777"/>
	<rect x="375.46667" y="284.44446" width="11.377777" height="11.377777"/>
	<rect x="409.60001" y="284.44446" width="11.377777" height="11.377777"/>
	<rect x="432.35556" y="284.44446" width="11.377777" height="11.377777"/>
	<rect x="45.511112" y="295.82224" width="11.377777" height="11.377777"/>
	<rect x="102.4" y="295.82224" width="22.755554" height="11.377777"/>
	<rect x="136.53334" y="295.82224" width="11.377777" height="11.377777"/>
	<rect x="159.28889" y="295.82224" width="11.377777" height="11.377777"/>
	<rect x="216.17778" y="295.82224" width="11.377777" height="11.377777"/>
	<rect x="284.44446" y="295.82224" width="11.377777" height="11.377777"/>
	<rect x="307.20001" y="295.82224" width="11.377777" height="11.377777"/>
	<rect x="352.71112" y="295.82224" width="22.755554" height="11.377777"/>
	<rect x="398.22223" y="295.82224" width="11.377777" height="11.377777"/>
	<rect x="420.97778" y="295.82224" width="11.377777" height="11.377777"/>
	<rect x="455.11111" y="295.82224" width="11.377777" height="11.377777"/>
	<rect x="45.511112" y="307.20001" width="11.377777" height="11.377777"/>
	<rect x="68.26667" y="307.20001" width="34.133331" height="11.377777"/>
	<rect x="136.53334" y="307.20001" width="22.755554" height="11.377777"/>
	<rect x="170.66667" y="307.20001" width="34.133331" height="11.377777"/>
	<rect x="216.17778" y="307.20001" width="11.377777" height="11.377777"/>
	<rect x="250.31111" y="307.20001" width="22.755569" height="11.377777"/>
	<rect x="307.20001" y="307.20001" width="22.755554" height="11.377777"/>
	<rect x="386.84445" y="307.20001" width="56.888885" height="11.377777"/>
	<rect x="45.511112" y="318.57779" width="11.377777" height="11.377777"/>
	<rect x="68.26667" y="318.57779" width="11.377777" height="11.377777"/>
	<rect x="91.022224" y="318.57779" width="11.377777" height="11.377777"/>
	<rect x="113.77778" y="318.57779" width="22.755562" height="11.377777"/>
	<rect x="147.91112" y="318.57779" width="56.888885" height="11.377777"/>
	<rect x="238.93333" y="318.57779" width="11.377777" height="11.377777"/>
	<rect x="261.6889" y="318.57779" width="45.511108" height="11.377777"/>
	<rect x="318.57779" y="318.57779" width="22.755554" height="11.377777"/>
	<rect x="352.71112" y="318.57779" width="22.755554" height="11.377777"/>
	<rect x="386.84445" y="318.57779" width="22.755554" height="11.377777"/>
	<rect x="443.73334" y="318.57779" width="22.755554" height="11.377777"/>
	<rect x="45.511112" y="329.95557" width="11.377777" height="11.377777"/>
	<rect x="68.26667" y="329.95557" width="22.755554" height="11.377777"/>
	<rect x="102.4" y="329.95557" width="11.377777" height="11.377777"/>
	<rect x="125.15556" y="329.95557" width="45.511116" height="11.377777"/>
	<rect x="250.31111" y="329.95557" width="22.755569" height="11.377777"/>
	<rect x="295.82224" y="329.95557" width="22.755554" height="11.377777"/>
	<rect x="341.33334" y="329.95557" width="34.133331" height="11.377777"/>
	<rect x="409.60001" y="329.95557" width="34.133331" height="11.377777"/>
	<rect x="45.511112" y="341.33334" width="79.64444" height="11.377777"/>
	<rect x="147.91112" y="341.33334" width="22.755554" height="11.377777"/>
	<rect x="216.17778" y="341.33334" width="11.377777" height="11.377777"/>
	<rect x="250.31111" y="341.33334" width="11.377792" height="11.377777"/>
	<rect x="284.44446" y="341.33334" width="22.755554" height="11.377777"/>
	<rect x="318.57779" y="341.33334" width="11.377777" height="11.377777"/>
	<rect x="341.33334" y="341.33334" width="22.755554" height="11.377777"/>
	<rect x="375.46667" y="341.33334" width="34.133331" height="11.377777"/>
	<rect x="443.73334" y="341.33334" width="22.755554" height="11.377777"/>
	<rect x="45.511112" y="352.71112" width="11.377777" height="11.377777"/>
	<rect x="91.022224" y="352.71112" width="11.377777" height="11.377777"/>
	<rect x="125.15556" y="352.71112" width="11.377785" height="11.377777"/>
	<rect x="147.91112" y="352.71112" width="11.377777" height="11.377777"/>
	<rect x="193.42223" y="352.71112" width="22.755554" height="11.377777"/>
	<rect x="227.55556" y="352.71112" width="11.377777" height="11.377777"/>
	<rect x="261.6889" y="352.71112" width="11.377777" height="11.377777"/>
	<rect x="295.82224" y="352.71112" width="22.755554" height="11.377777"/>
	<rect x="364.0889" y="352.71112" width="11.377777" height="11.377777"/>
	<rect x="386.84445" y="352.71112" width="22.755554" height="11.377777"/>
	<rect x="420.97778" y="352.71112" width="22.755554" height="11.377777"/>
	<rect x="45.511112" y="364.0889" width="11.377777" height="11.377777"/>
	<rect x="79.644447" y="364.0889" width="11.377777" height="11.377777"/>
	<rect x="102.4" y="364.0889" width="22.755554" height="11.377777"/>
	<rect x="147.91112" y="364.0889" width="11.377777" height="11.377777"/>
	<rect x="193.42223" y="364.0889" width="11.377777" height="11.377777"/>
	<rect x="216.17778" y="364.0889" width="11.377777" height="11.377777"/>
	<rect x="261.6889" y="364.0889" width="11.377777" height="11.377777"/>
	<rect x="295.82224" y="364.0889" width="11.377777" height="11.377777"/>
	<rect x="318.57779" y="364.0889" width="22.755554" height="11.377777"/>
	<rect x="364.0889" y="364.0889" width="102.39999" height="11.377777"/>
	<rect x="136.53334" y="375.46667" width="34.133331" height="11.377777"/>
	<rect x="193.42223" y="375.46667" width="11.377777" height="11.377777"/>
	<rect x="216.17778" y="375.46667" width="34.133331" height="11.377777"/>
	<rect x="273.06668" y="375.46667" width="34.133331" height="11.377777"/>
	<rect x="329.95557" y="375.46667" width="11.377777" height="11.377777"/>
	<rect x="352.71112" y="375.46667" width="22.755554" height="11.377777"/>
	<rect x="409.60001" y="375.46667" width="11.377777" height="11.377777"/>
	<rect x="432.35556" y="375.46667" width="34.133331" height="11.377777"/>
	<rect x="45.511112" y="386.84445" width="79.64444" height="11.377777"/>
	<rect x="136.53334" y="386.84445" width="34.133331" height="11.377777"/>
	<rect x="182.04445" y="386.84445" width="22.755554" height="11.377777"/>
	<rect x="216.17778" y="386.84445" width="56.888901" height="11.377777"/>
	<rect x="307.20001" y="386.84445" width="11.377777" height="11.377777"/>
	<rect x="329.95557" y="386.84445" width="11.377777" height="11.377777"/>
	<rect x="364.0889" y="386.84445" width="11.377777" height="11.377777"/>
	<rect x="386.84445" y="386.84445" width="11.377777" height="11.377777"/>
	<rect x="409.60001" y="386.84445" width="11.377777" height="11.377777"/>
	<rect x="455.11111" y="386.84445" width="11.377777" height="11.377777"/>
	<rect x="45.511112" y="398.22223" width="11.377777" height="11.377777"/>
	<rect x="113.77778" y="398.22223" width="11.377777" height="11.377777"/>
	<rect x="136.53334" y="398.22223" width="11.377777" height="11.377777"/>
	<rect x="159.28889" y="398.22223" width="11.377777" height="11.377777"/>
	<rect x="193.42223" y="398.22223" width="11.377777" height="11.377777"/>
	<rect x="284.44446" y="398.22223" width="11.377777" height="11.377777"/>
	<rect x="329.95557" y="398.22223" width="11.377777" height="11.377777"/>
	<rect x="352.71112" y="398.22223" width="22.755554" height="11.377777"/>
	<rect x="409.60001" y="398.22223" width="11.377777" height="11.377777"/>
	<rect x="45.511112" y="409.60001" width="11.377777" height="11.377777"/>
	<rect x="68.26667" y="409.60001" width="34.133331" height="11.377777"/>
	<rect x="113.77778" y="409.60001" width="11.377777" height="11.377777"/>
	<rect x="136.53334" y="409.60001" width="56.888885" height="11.377777"/>
	<rect x="204.8" y="409.60001" width="34.133331" height="11.377777"/>
	<rect x="250.31111" y="409.60001" width="11.377792" height="11.377777"/>
	<rect x="273.06668" y="409.60001" width="22.755554" height="11.377777"/>
	<rect x="318.57779" y="409.60001" width="102.39999" height="11.377777"/>
	<rect x="455.11111" y="409.60001" width="11.377777" height="11.377777"/>
	<rect x="45.511112" y="420.97778" width="11.377777" height="11.377777"/>
	<rect x="68.26667" y="420.97778" width="34.133331" height="11.377777"/>
	<rect x="113.77778" y="420.97778" width="11.377777" height="11.377777"/>
	<rect x="136.53334" y="420.97778" width="11.377777" height="11.377777"/>
	<rect x="159.28889" y="420.97778" width="45.511108" height="11.377777"/>
	<rect x="273.06668" y="420.97778" width="11.377777" height="11.377777"/>
	<rect x="295.82224" y="420.97778" width="34.133331" height="11.377777"/>
	<rect x="341.33334" y="420.97778" width="11.377777" height="11.377777"/>
	<rect x="364.0889" y="420.97778" width="34.133331" height="11.377777"/>
	<rect x="432.35556" y="420.97778" width="11.377777" height="11.377777"/>
	<rect x="455.11111" y="420.97778" width="11.377777" height="11.377777"/>
	<rect x="45.511112" y="432.35556" width="11.377777" height="11.377777"/>
	<rect x="68.26667" y="432.35556" width="34.133331" height="11.377777"/>
	<rect x="113.77778" y="432.35556" width="11.377777" height="11.377777"/>
	<rect x="147.91112" y="432.35556" width="11.377777" height="11.377777"/>
	<rect x="170.66667" y="432.35556" width="11.377777" height="11.377777"/>
	<rect x="204.8" y="432.35556" width="11.377777" height="11.377777"/>
	<rect x="250.31111" y="432.35556" width="11.377792" height="11.377777"/>
	<rect x="307.20001" y="432.35556" width="11.377777" height="11.377777"/>
	<rect x="329.95557" y="432.35556" width="11.377777" height="11.377777"/>
	<rect x="352.71112" y="432.35556" width="34.133331" height="11.377777"/>
	<rect x="409.60001" y="432.35556" width="34.133331" height="11.377777"/>
	<rect x="455.11111" y="432.35556" width="11.377777" height="11.377777"/>
	<rect x="45.511112" y="443.73334" width="11.377777" height="11.377777"/>
	<rect x="113.77778" y="443.73334" width="11.377777" height="11.377777"/>
	<rect x="147.91112" y="443.73334" width="11.377777" height="11.377777"/>
	<rect x="182.04445" y="443.73334" width="22.755554" height="11.377777"/>
	<rect x="216.17778" y="443.73334" width="11.377777" height="11.377777"/>
	<rect x="238.93333" y="443.73334" width="22.755569" height="11.377777"/>
	<rect x="307.20001" y="443.73334" width="11.377777" height="11.377777"/>
	<rect x="341.33334" y="443.73334" width="11.377777" height="11.377777"/>
	<rect x="375.46667" y="443.73334" width="22.755554" height="11.377777"/>
	<rect x="409.60001" y="443.73334" width="56.888885" height="11.377777"/>
	<rect x="45.511112" y="455.11111" width="79.64444" height="11.377777"/>
	<rect x="136.53334" y="455.11111" width="56.888885" height="11.377777"/>
	<rect x="261.6889" y="455.11111" width="22.755554" height="11.377777"/>
	<rect x="295.82224" y="455.11111" width="22.755554" height="11.377777"/>
	<rect x="364.0889" y="455.11111" width="11.377777" height="11.377777"/>
	<rect x="386.84445" y="455.11111" width="22.755554" height="11.377777"/>
	<rect x="420.97778" y="455.11111" width="11.377777" height="11.377777"/>
	<rect x="455.11111" y="455.11111" width="11.377777" height="11.377777"/>
</svg>
